<svg xmlns="http://www.w3.org/2000/svg" viewBox="0 0 86.2 96.05">
  <g transform="translate(-23.27 -12)">
    <path fill="#fff" d="M23.27 11.99h86.2v96.05h-86.2z"/>
    <path d="M33.56 75.93v1.79h-2.94v3.62H27.8v4.2h77.14v-4.2h-2.82v-3.62H99.2v-1.79zm32.59-58.89-.36.5v.92l-2.84 2.01.67.48-.67.47.35.25v2.79l-1.23 1.23.68.67a14.62 12.21 0 0 0-11.22 11.86 14.62 12.21 0 0 0 .12 1.48l-2.9 2.04 1.62 1.61v1.43l-1.11.45v2.4l17.11-2.85 17.12 2.85v-2.4l-1-.45v-1.43l1.6-1.6-3.42-2.43a14.62 12.21 0 0 0 .1-1.1 14.62 12.21 0 0 0-11.23-11.86l.68-.67L69 24.46v-2.8l.35-.24-.68-.47.68-.48-2.85-2v-.93zm.22 29.16-36.83 6.13v1.55l1.73 1v1.48l.74.74h68.72l.75-.74v-1.48l1.72-1v-1.55z"/>
    <path d="M35.56 57.1h7.57v19.58h-7.57Zm13.51 0h7.58v19.58h-7.58zm13.52 0h7.57v19.58h-7.57zm13.51 0h7.57v19.58H76.1zm13.51 0h7.58v19.58H89.6z"/>
    <g id="a" transform="translate(.12)">
      <path fill="#794992" d="M27.68 87.28a9.28 9.28 0 0 0 4.64 8.03 9.28 9.28 0 0 0 9.28 0 9.28 9.28 0 0 0 4.64-8.03h-7.42a1.85 1.85 0 0 1-.93 1.6 1.85 1.85 0 0 1-1.86 0 1.85 1.85 0 0 1-.92-1.6z"/>
      <path fill="#fff" d="M29.3 87.28a7.67 7.67 0 0 0 3.83 6.64 7.67 7.67 0 0 0 7.67 0 7.67 7.67 0 0 0 3.83-6.64h-5.81a1.85 1.85 0 0 1-.93 1.6 1.85 1.85 0 0 1-1.86 0 1.85 1.85 0 0 1-.92-1.6z"/>
      <path fill="#794992" d="M29.47 87.28a7.5 7.5 0 0 0 3.74 6.49 7.5 7.5 0 0 0 7.5 0 7.5 7.5 0 0 0 3.75-6.5h-5.64a1.85 1.85 0 0 1-.93 1.61 1.85 1.85 0 0 1-1.86 0 1.85 1.85 0 0 1-.92-1.6z"/>
      <path fill="#89d8ef" d="M32.57 87.28a4.39 4.39 0 0 0 2.2 3.8 4.39 4.39 0 0 0 4.39 0 4.39 4.39 0 0 0 2.19-3.8h-2.53a1.85 1.85 0 0 1-.93 1.6 1.85 1.85 0 0 1-1.86 0 1.85 1.85 0 0 1-.92-1.6z"/>
    </g>
    <use href="#a" transform="translate(19.53)"/>
    <use href="#a" transform="translate(39.05)"/>
    <use href="#a" transform="translate(58.58)"/>
    <path fill="none" stroke="#000" d="M83.47 100.54h18.65m-71.5 0h18.65"/>
    <path d="M50.94 102.9v-4.72h3.5v.8H51.9v1.04h2.38v.8H51.9v1.29h2.64v.8zm4.31-1.53.93-.1q.08.48.34.7.26.21.7.21.45 0 .69-.19.23-.2.23-.46 0-.17-.1-.28-.1-.12-.34-.2-.17-.07-.77-.22-.76-.19-1.07-.46-.44-.4-.44-.96 0-.36.2-.67.21-.32.6-.48.38-.17.93-.17.89 0 1.34.4.45.39.47 1.04l-.95.04q-.06-.36-.27-.52-.2-.16-.6-.16-.42 0-.65.17-.16.1-.16.29 0 .17.15.29.18.15.87.31.7.17 1.03.35.34.17.53.48.19.3.19.75 0 .4-.23.76-.22.36-.64.53-.41.17-1.03.17-.9 0-1.38-.41-.48-.42-.57-1.21zm5.86 1.54v-3.93h-1.4v-.8h3.76v.8h-1.4v3.93zm2.39 0V102h.9v.9zm6.84-.85v.85h-3.18q.05-.48.3-.9.26-.44 1.03-1.14.61-.57.75-.78.19-.28.19-.55 0-.3-.17-.47-.16-.16-.45-.16-.28 0-.45.17-.17.17-.2.57l-.9-.1q.08-.74.51-1.07.43-.32 1.07-.32.7 0 1.1.37.4.38.4.94 0 .32-.12.61-.11.29-.36.6-.17.22-.6.61l-.54.52q-.11.13-.18.25zm2.3-3.9q.68 0 1.07.49.46.58.46 1.92 0 1.35-.47 1.93-.38.49-1.07.49-.69 0-1.11-.53-.43-.53-.43-1.9 0-1.33.47-1.92.38-.48 1.07-.48zm0 .75q-.17 0-.3.1-.13.1-.2.38-.1.35-.1 1.18 0 .84.09 1.15.08.3.2.41.14.1.3.1.17 0 .3-.1.12-.1.2-.38.09-.34.09-1.18 0-.83-.09-1.14-.08-.31-.2-.42-.13-.1-.3-.1zm5.35 3.15v.85H74.8q.05-.48.3-.9.26-.44 1.03-1.14.6-.57.75-.78.19-.28.19-.55 0-.3-.17-.47-.16-.16-.45-.16-.28 0-.45.17-.17.17-.2.57l-.9-.1q.08-.74.5-1.07.44-.32 1.07-.32.7 0 1.1.37.4.38.4.94 0 .32-.11.61t-.36.6q-.17.22-.6.61-.43.4-.54.52l-.19.25zm3.82 0v.85h-3.18q.05-.48.31-.9.26-.44 1.02-1.14.61-.57.75-.78.19-.28.19-.55 0-.3-.16-.47-.17-.16-.45-.16-.29 0-.46.17-.16.17-.19.57l-.9-.1q.08-.74.5-1.07.43-.32 1.07-.32.7 0 1.1.37.4.38.4.94 0 .32-.12.61-.1.29-.36.6-.16.22-.6.61l-.54.52q-.11.13-.18.25z"/>
  </g>
</svg>
